<svg width="35" height="56" viewBox="0 0 35 56" fill="none" xmlns="http://www.w3.org/2000/svg">
<path d="M18 30C24.6274 30 30 24.6274 30 18C30 11.3726 24.6274 6 18 6C11.3726 6 6 11.3726 6 18C6 24.6274 11.3726 30 18 30Z" stroke="#696888" stroke-width="2" stroke-linecap="round" stroke-linejoin="round"/>
<path d="M14 18H22" stroke="#696888" stroke-width="2" stroke-linecap="round" stroke-linejoin="round"/>
<path d="M18 14V22" stroke="#696888" stroke-width="2" stroke-linecap="round" stroke-linejoin="round"/>
<path d="M5.87518 53H4.2445L7.90856 42.8182H9.68342L13.3475 53H11.7168L8.83825 44.6676H8.7587L5.87518 53ZM6.14862 49.0128H11.4384V50.3054H6.14862V49.0128ZM17.4341 53.1491C16.8176 53.1491 16.2675 52.9917 15.7836 52.6768C15.303 52.3587 14.9251 51.9062 14.65 51.3196C14.3783 50.7296 14.2424 50.022 14.2424 49.1967C14.2424 48.3714 14.3799 47.6655 14.655 47.0788C14.9334 46.4922 15.3146 46.0431 15.7985 45.7315C16.2824 45.42 16.8309 45.2642 17.4441 45.2642C17.918 45.2642 18.2992 45.3438 18.5875 45.5028C18.8792 45.6586 19.1046 45.8409 19.2637 46.0497C19.4261 46.2585 19.552 46.4425 19.6415 46.6016H19.731V42.8182H21.2175V53H19.7658V51.8118H19.6415C19.552 51.9742 19.4228 52.1598 19.2537 52.3686C19.088 52.5774 18.8593 52.7597 18.5676 52.9155C18.276 53.0713 17.8981 53.1491 17.4341 53.1491ZM17.7623 51.8814C18.1898 51.8814 18.5511 51.7687 18.8461 51.5433C19.1444 51.3146 19.3697 50.9981 19.5222 50.5938C19.678 50.1894 19.7559 49.7187 19.7559 49.1818C19.7559 48.6515 19.6796 48.1875 19.5272 47.7898C19.3747 47.392 19.151 47.0821 18.856 46.8601C18.561 46.638 18.1964 46.527 17.7623 46.527C17.3148 46.527 16.9419 46.643 16.6436 46.875C16.3453 47.107 16.12 47.4235 15.9675 47.8246C15.8184 48.2256 15.7438 48.678 15.7438 49.1818C15.7438 49.6922 15.82 50.1513 15.9725 50.5589C16.1249 50.9666 16.3503 51.2898 16.6486 51.5284C16.9502 51.7637 17.3214 51.8814 17.7623 51.8814ZM26.1978 53.1491C25.5813 53.1491 25.0311 52.9917 24.5472 52.6768C24.0666 52.3587 23.6888 51.9062 23.4137 51.3196C23.1419 50.7296 23.006 50.022 23.006 49.1967C23.006 48.3714 23.1436 47.6655 23.4187 47.0788C23.6971 46.4922 24.0782 46.0431 24.5621 45.7315C25.046 45.42 25.5946 45.2642 26.2077 45.2642C26.6817 45.2642 27.0629 45.3438 27.3512 45.5028C27.6429 45.6586 27.8683 45.8409 28.0273 46.0497C28.1897 46.2585 28.3157 46.4425 28.4052 46.6016H28.4947V42.8182H29.9812V53H28.5295V51.8118H28.4052C28.3157 51.9742 28.1864 52.1598 28.0174 52.3686C27.8517 52.5774 27.623 52.7597 27.3313 52.9155C27.0397 53.0713 26.6618 53.1491 26.1978 53.1491ZM26.5259 51.8814C26.9535 51.8814 27.3147 51.7687 27.6097 51.5433C27.908 51.3146 28.1334 50.9981 28.2859 50.5938C28.4416 50.1894 28.5195 49.7187 28.5195 49.1818C28.5195 48.6515 28.4433 48.1875 28.2908 47.7898C28.1384 47.392 27.9147 47.0821 27.6197 46.8601C27.3247 46.638 26.9601 46.527 26.5259 46.527C26.0785 46.527 25.7056 46.643 25.4073 46.875C25.109 47.107 24.8836 47.4235 24.7312 47.8246C24.582 48.2256 24.5075 48.678 24.5075 49.1818C24.5075 49.6922 24.5837 50.1513 24.7362 50.5589C24.8886 50.9666 25.114 51.2898 25.4123 51.5284C25.7139 51.7637 26.0851 51.8814 26.5259 51.8814Z" fill="#696888"/>
</svg>
