<svg width="35" height="56" viewBox="0 0 35 56" fill="none" xmlns="http://www.w3.org/2000/svg">
<path d="M6 28L7.65982 22.888C6.22528 20.7098 5.70633 18.1304 6.19946 15.6293C6.69258 13.1282 8.16423 10.8756 10.3408 9.29038C12.5173 7.70513 15.2506 6.8951 18.0325 7.0109C20.8144 7.1267 23.4556 8.16044 25.4649 9.91993C27.4743 11.6794 28.7151 14.0449 28.9567 16.5766C29.1982 19.1083 28.4241 21.6339 26.7782 23.6838C25.1323 25.7337 22.7267 27.1685 20.0086 27.7213C17.2905 28.2741 14.4449 27.9073 12.0009 26.6892L6 28" stroke="#696888" stroke-width="2" stroke-linecap="round" stroke-linejoin="round"/>
<path d="M11.127 46.1293H9.57591C9.51625 45.7978 9.40521 45.5062 9.24281 45.2543C9.0804 45.0024 8.88154 44.7886 8.64622 44.6129C8.4109 44.4373 8.1474 44.3047 7.85574 44.2152C7.56738 44.1257 7.2608 44.081 6.93599 44.081C6.34934 44.081 5.82401 44.2285 5.36 44.5234C4.8993 44.8184 4.53471 45.2509 4.26625 45.821C4.00109 46.3911 3.86852 47.0871 3.86852 47.9091C3.86852 48.7377 4.00109 49.437 4.26625 50.0071C4.53471 50.5772 4.90095 51.008 5.36497 51.2997C5.82898 51.5914 6.351 51.7372 6.93102 51.7372C7.25252 51.7372 7.55744 51.6941 7.84579 51.608C8.13746 51.5185 8.40095 51.3875 8.63627 51.2152C8.8716 51.0429 9.07046 50.8324 9.23287 50.5838C9.39859 50.3319 9.51293 50.0436 9.57591 49.7188L11.127 49.7237C11.0442 50.2242 10.8834 50.6849 10.6448 51.1058C10.4095 51.5234 10.1062 51.8847 9.735 52.1896C9.3671 52.4912 8.94617 52.7249 8.47221 52.8906C7.99825 53.0563 7.48121 53.1392 6.92108 53.1392C6.03945 53.1392 5.25394 52.9304 4.56454 52.5128C3.87515 52.0919 3.33159 51.4903 2.93386 50.7081C2.53945 49.9259 2.34224 48.9929 2.34224 47.9091C2.34224 46.822 2.5411 45.889 2.93883 45.1101C3.33656 44.3279 3.88012 43.728 4.56951 43.3104C5.25891 42.8894 6.04276 42.679 6.92108 42.679C7.46132 42.679 7.96511 42.7569 8.43244 42.9126C8.90308 43.0651 9.32567 43.2905 9.7002 43.5888C10.0747 43.8838 10.3846 44.245 10.6299 44.6726C10.8751 45.0968 11.0409 45.5824 11.127 46.1293ZM14.3325 48.4659V53H12.846V42.8182H14.3126V46.6065H14.407C14.586 46.1955 14.8595 45.8691 15.2274 45.6271C15.5953 45.3852 16.0758 45.2642 16.6691 45.2642C17.1928 45.2642 17.6502 45.3719 18.0413 45.5874C18.4357 45.8028 18.7406 46.1243 18.9561 46.5518C19.1748 46.9761 19.2842 47.5064 19.2842 48.1428V53H17.7977V48.3217C17.7977 47.7616 17.6535 47.3274 17.3651 47.0192C17.0768 46.7076 16.6758 46.5518 16.162 46.5518C15.8107 46.5518 15.4958 46.6264 15.2174 46.7756C14.9423 46.9247 14.7252 47.1435 14.5661 47.4318C14.4104 47.7169 14.3325 48.0616 14.3325 48.4659ZM23.4901 53.169C23.0062 53.169 22.5687 53.0795 22.1776 52.9006C21.7865 52.7183 21.4767 52.4548 21.248 52.1101C21.0226 51.7654 20.9099 51.3428 20.9099 50.8423C20.9099 50.4115 20.9927 50.0568 21.1585 49.7784C21.3242 49.5 21.5479 49.2796 21.8296 49.1172C22.1114 48.9548 22.4262 48.8321 22.7742 48.7493C23.1222 48.6664 23.4769 48.6035 23.8382 48.5604C24.2955 48.5073 24.6668 48.4643 24.9518 48.4311C25.2368 48.3946 25.444 48.3366 25.5732 48.2571C25.7025 48.1776 25.7671 48.0483 25.7671 47.8693V47.8345C25.7671 47.4003 25.6445 47.0639 25.3992 46.8253C25.1573 46.5866 24.796 46.4673 24.3154 46.4673C23.815 46.4673 23.4205 46.5784 23.1322 46.8004C22.8472 47.0192 22.6499 47.2628 22.5406 47.5312L21.1436 47.2131C21.3093 46.7491 21.5512 46.3745 21.8694 46.0895C22.1909 45.8011 22.5605 45.5923 22.9781 45.4631C23.3957 45.3305 23.8348 45.2642 24.2955 45.2642C24.6005 45.2642 24.9236 45.3007 25.265 45.3736C25.6097 45.4432 25.9312 45.5724 26.2295 45.7614C26.5311 45.9503 26.778 46.2204 26.9703 46.5717C27.1625 46.9197 27.2586 47.3722 27.2586 47.929V53H25.8069V51.956H25.7472C25.6511 52.1482 25.507 52.3371 25.3147 52.5227C25.1225 52.7083 24.8756 52.8625 24.574 52.9851C24.2723 53.1077 23.9111 53.169 23.4901 53.169ZM23.8133 51.9759C24.2243 51.9759 24.5756 51.8946 24.8673 51.7322C25.1623 51.5698 25.386 51.3577 25.5384 51.0959C25.6942 50.8307 25.7721 50.5473 25.7721 50.2457V49.2614C25.7191 49.3144 25.6163 49.3641 25.4639 49.4105C25.3147 49.4536 25.144 49.4917 24.9518 49.5249C24.7596 49.5547 24.5723 49.5829 24.39 49.6094C24.2077 49.6326 24.0552 49.6525 23.9326 49.669C23.6443 49.7055 23.3808 49.7668 23.1421 49.853C22.9068 49.9392 22.7179 50.0634 22.5754 50.2259C22.4362 50.3849 22.3666 50.5971 22.3666 50.8622C22.3666 51.2301 22.5025 51.5085 22.7742 51.6974C23.046 51.883 23.3924 51.9759 23.8133 51.9759ZM32.8032 45.3636V46.5568H28.632V45.3636H32.8032ZM29.7506 43.5341H31.2371V50.7578C31.2371 51.0462 31.2802 51.2633 31.3664 51.4091C31.4526 51.5516 31.5636 51.6494 31.6995 51.7024C31.8387 51.7521 31.9895 51.777 32.1519 51.777C32.2712 51.777 32.3756 51.7687 32.4651 51.7521C32.5546 51.7356 32.6242 51.7223 32.6739 51.7124L32.9424 52.9403C32.8562 52.9735 32.7336 53.0066 32.5745 53.0398C32.4154 53.0762 32.2165 53.0961 31.9779 53.0994C31.5868 53.1061 31.2222 53.0365 30.8841 52.8906C30.5461 52.7448 30.2726 52.5194 30.0638 52.2145C29.855 51.9096 29.7506 51.5268 29.7506 51.0661V43.5341Z" fill="#696888"/>
</svg>
