<svg width="40" height="57" viewBox="0 0 40 57" fill="none" xmlns="http://www.w3.org/2000/svg">
<g clip-path="url(#clip0_2076_614)">
<path d="M30.2082 12.2021L22.4309 6.15293C21.7484 5.62196 20.9083 5.33368 20.0436 5.33368C19.1789 5.33368 18.3388 5.62196 17.6563 6.15293L9.87758 12.2021C9.4101 12.5656 9.03188 13.0312 8.77181 13.5632C8.51173 14.0953 8.37667 14.6797 8.37695 15.2719V25.7719C8.37695 26.5454 8.68424 27.2873 9.23123 27.8343C9.77821 28.3813 10.5201 28.6885 11.2936 28.6885H28.7936C29.5672 28.6885 30.309 28.3813 30.856 27.8343C31.403 27.2873 31.7103 26.5454 31.7103 25.7719V15.2719C31.7103 14.0717 31.1561 12.9386 30.2082 12.2021Z" stroke="#696888" stroke-width="2" stroke-linecap="round" stroke-linejoin="round"/>
<path d="M25.8332 21.375C22.6103 23.319 17.3865 23.319 14.1665 21.375" stroke="#696888" stroke-width="2" stroke-linecap="round" stroke-linejoin="round"/>
</g>
<path d="M1.4106 53.5V43.3182H2.94682V47.7429H8.02282V43.3182H9.56401V53.5H8.02282V49.0604H2.94682V53.5H1.4106ZM14.8985 53.6541C14.1826 53.6541 13.5579 53.4901 13.0242 53.1619C12.4906 52.8338 12.0763 52.3748 11.7813 51.7848C11.4864 51.1948 11.3389 50.5054 11.3389 49.7166C11.3389 48.9245 11.4864 48.2318 11.7813 47.6385C12.0763 47.0452 12.4906 46.5845 13.0242 46.2564C13.5579 45.9283 14.1826 45.7642 14.8985 45.7642C15.6144 45.7642 16.2392 45.9283 16.7728 46.2564C17.3064 46.5845 17.7207 47.0452 18.0157 47.6385C18.3107 48.2318 18.4582 48.9245 18.4582 49.7166C18.4582 50.5054 18.3107 51.1948 18.0157 51.7848C17.7207 52.3748 17.3064 52.8338 16.7728 53.1619C16.2392 53.4901 15.6144 53.6541 14.8985 53.6541ZM14.9035 52.4062C15.3675 52.4062 15.752 52.2836 16.0569 52.0384C16.3618 51.7931 16.5872 51.4666 16.733 51.0589C16.8822 50.6513 16.9568 50.2022 16.9568 49.7116C16.9568 49.2244 16.8822 48.777 16.733 48.3693C16.5872 47.9583 16.3618 47.6286 16.0569 47.38C15.752 47.1314 15.3675 47.0071 14.9035 47.0071C14.4362 47.0071 14.0484 47.1314 13.7401 47.38C13.4352 47.6286 13.2082 47.9583 13.059 48.3693C12.9132 48.777 12.8403 49.2244 12.8403 49.7116C12.8403 50.2022 12.9132 50.6513 13.059 51.0589C13.2082 51.4666 13.4352 51.7931 13.7401 52.0384C14.0484 52.2836 14.4362 52.4062 14.9035 52.4062ZM20.1175 53.5V45.8636H21.5443V47.1065H21.6388C21.7979 46.6856 22.058 46.3575 22.4193 46.1222C22.7806 45.8835 23.2131 45.7642 23.7169 45.7642C24.2273 45.7642 24.6549 45.8835 24.9996 46.1222C25.3476 46.3608 25.6044 46.6889 25.7702 47.1065H25.8497C26.032 46.6989 26.322 46.3741 26.7197 46.1321C27.1175 45.8868 27.5914 45.7642 28.1416 45.7642C28.8343 45.7642 29.3994 45.9813 29.8369 46.4155C30.2777 46.8497 30.4981 47.5043 30.4981 48.3793V53.5H29.0116V48.5185C29.0116 48.0014 28.8708 47.6269 28.589 47.3949C28.3073 47.1629 27.9709 47.0469 27.5798 47.0469C27.0959 47.0469 26.7197 47.196 26.4513 47.4943C26.1828 47.7893 26.0486 48.1688 26.0486 48.6328V53.5H24.567V48.424C24.567 48.0097 24.4378 47.6766 24.1792 47.4247C23.9207 47.1728 23.5843 47.0469 23.17 47.0469C22.8883 47.0469 22.6281 47.1214 22.3895 47.2706C22.1541 47.4164 21.9636 47.6203 21.8177 47.8821C21.6752 48.1439 21.604 48.4472 21.604 48.7919V53.5H20.1175ZM35.7817 53.6541C35.0293 53.6541 34.3814 53.4934 33.8378 53.1719C33.2976 52.8471 32.8799 52.3913 32.585 51.8047C32.2933 51.2147 32.1475 50.5237 32.1475 49.7315C32.1475 48.9493 32.2933 48.2599 32.585 47.6634C32.8799 47.0668 33.2909 46.6011 33.8179 46.2663C34.3482 45.9316 34.968 45.7642 35.6773 45.7642C36.1082 45.7642 36.5258 45.8355 36.9301 45.978C37.3345 46.1205 37.6974 46.3442 38.0189 46.6491C38.3404 46.9541 38.594 47.3501 38.7796 47.8374C38.9652 48.3213 39.058 48.9096 39.058 49.6023V50.1293H32.9877V49.0156H37.6013C37.6013 48.6245 37.5218 48.2782 37.3627 47.9766C37.2036 47.6716 36.9798 47.4313 36.6915 47.2557C36.4065 47.08 36.0717 46.9922 35.6872 46.9922C35.2696 46.9922 34.905 47.0949 34.5935 47.3004C34.2852 47.5026 34.0466 47.7678 33.8776 48.0959C33.7119 48.4207 33.629 48.7737 33.629 49.1548V50.0249C33.629 50.5353 33.7185 50.9695 33.8975 51.3274C34.0798 51.6854 34.3333 51.9588 34.6581 52.1477C34.9829 52.3333 35.3624 52.4261 35.7966 52.4261C36.0783 52.4261 36.3352 52.3864 36.5672 52.3068C36.7992 52.224 36.9997 52.1013 37.1688 51.9389C37.3378 51.7765 37.4671 51.576 37.5566 51.3374L38.9635 51.5909C38.8508 52.0052 38.6486 52.3681 38.357 52.6797C38.0686 52.9879 37.7057 53.2282 37.2682 53.4006C36.834 53.5696 36.3385 53.6541 35.7817 53.6541Z" fill="#696888"/>
<defs>
<clipPath id="clip0_2076_614">
<rect width="35" height="35" fill="white" transform="translate(2.5 0.5)"/>
</clipPath>
</defs>
</svg>
