<svg width="21" height="21" viewBox="0 0 21 21" fill="none" xmlns="http://www.w3.org/2000/svg">
<path d="M5.47559 12.9761C6.8563 12.9761 7.97559 11.8568 7.97559 10.4761C7.97559 9.09536 6.8563 7.97607 5.47559 7.97607C4.09487 7.97607 2.97559 9.09536 2.97559 10.4761C2.97559 11.8568 4.09487 12.9761 5.47559 12.9761Z" stroke="#0F0F17" stroke-width="1.5" stroke-linecap="round" stroke-linejoin="round"/>
<path d="M15.4756 7.97607C16.8563 7.97607 17.9756 6.85679 17.9756 5.47607C17.9756 4.09536 16.8563 2.97607 15.4756 2.97607C14.0949 2.97607 12.9756 4.09536 12.9756 5.47607C12.9756 6.85679 14.0949 7.97607 15.4756 7.97607Z" stroke="#0F0F17" stroke-width="1.5" stroke-linecap="round" stroke-linejoin="round"/>
<path d="M15.4756 17.9761C16.8563 17.9761 17.9756 16.8568 17.9756 15.4761C17.9756 14.0954 16.8563 12.9761 15.4756 12.9761C14.0949 12.9761 12.9756 14.0954 12.9756 15.4761C12.9756 16.8568 14.0949 17.9761 15.4756 17.9761Z" stroke="#0F0F17" stroke-width="1.5" stroke-linecap="round" stroke-linejoin="round"/>
<path d="M7.72559 9.3929L13.2256 6.55957" stroke="#0F0F17" stroke-width="1.5" stroke-linecap="round" stroke-linejoin="round"/>
<path d="M7.72559 11.5596L13.2256 14.3929" stroke="#0F0F17" stroke-width="1.5" stroke-linecap="round" stroke-linejoin="round"/>
</svg>
