<svg width="18" height="18" viewBox="0 0 18 18" fill="none" xmlns="http://www.w3.org/2000/svg">
<path d="M9.45866 15.4968C9.16718 15.3432 8.81874 15.343 8.52711 15.4964L4.61456 17.5534C3.88092 17.9392 3.02346 17.3162 3.1636 16.4992L3.91104 12.142C3.96673 11.8174 3.85897 11.4861 3.62294 11.2564L0.453895 8.17164C-0.14038 7.59317 0.187224 6.58436 1.00798 6.46541L5.37947 5.83186C5.70533 5.78463 5.98705 5.58002 6.13277 5.28476L8.08926 1.32043C8.45607 0.577179 9.51593 0.57718 9.88274 1.32043L11.8392 5.28476C11.9849 5.58002 12.2667 5.78463 12.5925 5.83186L16.964 6.46541C17.7848 6.58436 18.1124 7.59317 17.5181 8.17164L14.3491 11.2564C14.113 11.4861 14.0053 11.8174 14.061 12.142L14.808 16.4969C14.9482 17.3142 14.0899 17.9372 13.3562 17.5506L9.45866 15.4968Z" fill="#F26465"/>
</svg>
