<svg width="18" height="20" viewBox="0 0 18 20" fill="none" xmlns="http://www.w3.org/2000/svg">
<path d="M6.80651 2.9355C6.80651 2.42218 7.01042 1.92987 7.3734 1.5669C7.73638 1.20392 8.22868 1 8.74201 1C9.25534 1 9.74764 1.20392 10.1106 1.5669C10.4736 1.92987 10.6775 2.42218 10.6775 2.9355C11.7889 3.46102 12.7363 4.27906 13.4182 5.30194C14.1002 6.32483 14.4909 7.51401 14.5485 8.74201V11.6453C14.6213 12.2469 14.8344 12.8231 15.1706 13.3273C15.5068 13.8316 15.9567 14.2499 16.484 14.5485H1C1.52736 14.2499 1.97724 13.8316 2.31342 13.3273C2.64959 12.8231 2.86267 12.2469 2.9355 11.6453V8.74201C2.99314 7.51401 3.38386 6.32483 4.06579 5.30194C4.74771 4.27906 5.69513 3.46102 6.80651 2.9355" stroke="#0F0F17" stroke-width="1.5" stroke-linecap="round" stroke-linejoin="round"/>
<path d="M5.64551 15.1289V16.0967C5.64551 16.8666 5.97178 17.6051 6.55254 18.1496C7.1333 18.694 7.92099 18.9999 8.74231 18.9999C9.56364 18.9999 10.3513 18.694 10.9321 18.1496C11.5128 17.6051 11.8391 16.8666 11.8391 16.0967V15.1289" stroke="#0F0F17" stroke-width="1.5" stroke-linecap="round" stroke-linejoin="round"/>
</svg>
