<svg width="19" height="20" viewBox="0 0 19 20" fill="none" xmlns="http://www.w3.org/2000/svg">
<path d="M12.8 4V3.25V4ZM5.46667 4V3.25V4ZM4 5.5H3.25H4ZM5.46667 7V7.75V7ZM14.2667 7V7.75V7ZM14.25 10C14.25 10.4142 14.5858 10.75 15 10.75C15.4142 10.75 15.75 10.4142 15.75 10H14.25ZM15.75 13C15.75 12.5858 15.4142 12.25 15 12.25C14.5858 12.25 14.25 12.5858 14.25 13H15.75ZM4 14.5H3.25H4ZM14.2833 7V4.75H12.7833V7H14.2833ZM14.2833 4.75C14.2833 4.35755 14.1311 3.97786 13.8548 3.69533L12.7823 4.74401C12.7811 4.74278 12.7833 4.74463 12.7833 4.75H14.2833ZM13.8548 3.69533C13.578 3.41223 13.1989 3.25 12.8 3.25V4.75C12.7901 4.75 12.7841 4.74581 12.7823 4.74401L13.8548 3.69533ZM12.8 3.25H5.46667V4.75H12.8V3.25ZM5.46667 3.25C4.87326 3.25 4.30766 3.49124 3.89332 3.915L4.96583 4.96368C5.1016 4.82483 5.2821 4.75 5.46667 4.75V3.25ZM3.89332 3.915C3.47954 4.33819 3.25 4.90863 3.25 5.5H4.75C4.75 5.29572 4.82951 5.1031 4.96583 4.96368L3.89332 3.915ZM3.25 5.5C3.25 6.09137 3.47954 6.66181 3.89332 7.085L4.96583 6.03632C4.82951 5.8969 4.75 5.70428 4.75 5.5H3.25ZM3.89332 7.085C4.30766 7.50876 4.87326 7.75 5.46667 7.75V6.25C5.2821 6.25 5.1016 6.17517 4.96583 6.03632L3.89332 7.085ZM5.46667 7.75H14.2667V6.25H5.46667V7.75ZM14.2667 7.75C14.2567 7.75 14.2507 7.74581 14.249 7.74401L15.3215 6.69533C15.0447 6.41223 14.6656 6.25 14.2667 6.25V7.75ZM14.249 7.74401C14.2478 7.74278 14.25 7.74463 14.25 7.75H15.75C15.75 7.35755 15.5977 6.97787 15.3215 6.69533L14.249 7.74401ZM14.25 7.75V10H15.75V7.75H14.25ZM14.25 13V15.25H15.75V13H14.25ZM14.25 15.25C14.25 15.2554 14.2478 15.2572 14.249 15.256L15.3215 16.3047C15.5977 16.0221 15.75 15.6425 15.75 15.25H14.25ZM14.249 15.256C14.2507 15.2542 14.2567 15.25 14.2667 15.25V16.75C14.6656 16.75 15.0447 16.5878 15.3215 16.3047L14.249 15.256ZM14.2667 15.25H5.46667V16.75H14.2667V15.25ZM5.46667 15.25C5.2821 15.25 5.1016 15.1752 4.96583 15.0363L3.89332 16.085C4.30766 16.5088 4.87326 16.75 5.46667 16.75V15.25ZM4.96583 15.0363C4.82951 14.8969 4.75 14.7043 4.75 14.5H3.25C3.25 15.0914 3.47954 15.6618 3.89332 16.085L4.96583 15.0363ZM4.75 14.5V5.5H3.25V14.5H4.75ZM15.75 10V8.46667H14.25V10H15.75ZM15.75 8.46667C15.75 7.24244 14.7576 6.25 13.5333 6.25V7.75C13.9291 7.75 14.25 8.07086 14.25 8.46667H15.75Z" fill="#696888"/>
<path d="M16 10V13H13.3333C12.9797 13 12.6406 12.842 12.3905 12.5607C12.1405 12.2794 12 11.8978 12 11.5C12 11.1022 12.1405 10.7206 12.3905 10.4393C12.6406 10.158 12.9797 10 13.3333 10H16Z" stroke="#696888" stroke-width="1.5" stroke-linecap="round" stroke-linejoin="round"/>
</svg>
