<svg width="35" height="56" viewBox="0 0 35 56" fill="none" xmlns="http://www.w3.org/2000/svg">
<path d="M6 28L13.6667 24.25L21.3333 27L29 25V20.5V8L21.3333 11.75L13.6667 8L6 11.75V28Z" stroke="#696888" stroke-width="2" stroke-linecap="round" stroke-linejoin="round"/>
<path d="M14 8V24" stroke="#696888" stroke-width="2" stroke-linecap="round" stroke-linejoin="round"/>
<path d="M21 12V26" stroke="#696888" stroke-width="2" stroke-linecap="round" stroke-linejoin="round"/>
<path d="M4.03072 42.8182H5.89506L9.13654 50.733H9.25586L12.4973 42.8182H14.3617V53H12.9V45.6321H12.8056L9.80273 52.9851H8.58967L5.58683 45.6271H5.49237V53H4.03072V42.8182ZM18.6982 53.169C18.2143 53.169 17.7768 53.0795 17.3857 52.9006C16.9946 52.7183 16.6847 52.4548 16.456 52.1101C16.2306 51.7654 16.1179 51.3428 16.1179 50.8423C16.1179 50.4115 16.2008 50.0568 16.3665 49.7784C16.5322 49.5 16.7559 49.2796 17.0376 49.1172C17.3194 48.9548 17.6342 48.8321 17.9822 48.7493C18.3303 48.6664 18.6849 48.6035 19.0462 48.5604C19.5036 48.5073 19.8748 48.4643 20.1598 48.4311C20.4448 48.3946 20.652 48.3366 20.7812 48.2571C20.9105 48.1776 20.9751 48.0483 20.9751 47.8693V47.8345C20.9751 47.4003 20.8525 47.0639 20.6072 46.8253C20.3653 46.5866 20.004 46.4673 19.5234 46.4673C19.023 46.4673 18.6286 46.5784 18.3402 46.8004C18.0552 47.0192 17.858 47.2628 17.7486 47.5312L16.3516 47.2131C16.5173 46.7491 16.7592 46.3745 17.0774 46.0895C17.3989 45.8011 17.7685 45.5923 18.1861 45.4631C18.6037 45.3305 19.0429 45.2642 19.5036 45.2642C19.8085 45.2642 20.1316 45.3007 20.473 45.3736C20.8177 45.4432 21.1392 45.5724 21.4375 45.7614C21.7391 45.9503 21.986 46.2204 22.1783 46.5717C22.3705 46.9197 22.4666 47.3722 22.4666 47.929V53H21.0149V51.956H20.9553C20.8591 52.1482 20.715 52.3371 20.5227 52.5227C20.3305 52.7083 20.0836 52.8625 19.782 52.9851C19.4804 53.1077 19.1191 53.169 18.6982 53.169ZM19.0213 51.9759C19.4323 51.9759 19.7836 51.8946 20.0753 51.7322C20.3703 51.5698 20.594 51.3577 20.7464 51.0959C20.9022 50.8307 20.9801 50.5473 20.9801 50.2457V49.2614C20.9271 49.3144 20.8243 49.3641 20.6719 49.4105C20.5227 49.4536 20.352 49.4917 20.1598 49.5249C19.9676 49.5547 19.7803 49.5829 19.598 49.6094C19.4157 49.6326 19.2633 49.6525 19.1406 49.669C18.8523 49.7055 18.5888 49.7668 18.3501 49.853C18.1148 49.9392 17.9259 50.0634 17.7834 50.2259C17.6442 50.3849 17.5746 50.5971 17.5746 50.8622C17.5746 51.2301 17.7105 51.5085 17.9822 51.6974C18.254 51.883 18.6004 51.9759 19.0213 51.9759ZM24.4466 55.8636V45.3636H25.8983V46.6016H26.0225C26.1087 46.4425 26.233 46.2585 26.3954 46.0497C26.5578 45.8409 26.7832 45.6586 27.0716 45.5028C27.3599 45.3438 27.7411 45.2642 28.215 45.2642C28.8315 45.2642 29.3817 45.42 29.8656 45.7315C30.3495 46.0431 30.729 46.4922 31.0041 47.0788C31.2825 47.6655 31.4217 48.3714 31.4217 49.1967C31.4217 50.022 31.2842 50.7296 31.0091 51.3196C30.734 51.9062 30.3561 52.3587 29.8755 52.6768C29.3949 52.9917 28.8464 53.1491 28.2299 53.1491C27.7659 53.1491 27.3864 53.0713 27.0914 52.9155C26.7998 52.7597 26.5711 52.5774 26.4054 52.3686C26.2396 52.1598 26.112 51.9742 26.0225 51.8118H25.9331V55.8636H24.4466ZM25.9032 49.1818C25.9032 49.7187 25.9811 50.1894 26.1369 50.5938C26.2927 50.9981 26.5181 51.3146 26.813 51.5433C27.108 51.7687 27.4693 51.8814 27.8968 51.8814C28.341 51.8814 28.7122 51.7637 29.0105 51.5284C29.3088 51.2898 29.5342 50.9666 29.6866 50.5589C29.8424 50.1513 29.9203 49.6922 29.9203 49.1818C29.9203 48.678 29.844 48.2256 29.6916 47.8246C29.5424 47.4235 29.3171 47.107 29.0154 46.875C28.7172 46.643 28.3443 46.527 27.8968 46.527C27.466 46.527 27.1014 46.638 26.8031 46.8601C26.5081 47.0821 26.2844 47.392 26.1319 47.7898C25.9795 48.1875 25.9032 48.6515 25.9032 49.1818Z" fill="#696888"/>
</svg>
