<svg width="35" height="56" viewBox="0 0 35 56" fill="none" xmlns="http://www.w3.org/2000/svg">
<path d="M24.875 7H11.125C8.84683 7 7 8.84683 7 11.125V24.875C7 27.1532 8.84683 29 11.125 29H24.875C27.1532 29 29 27.1532 29 24.875V11.125C29 8.84683 27.1532 7 24.875 7Z" stroke="#696888" stroke-width="2" stroke-linecap="round" stroke-linejoin="round"/>
<path d="M7 21.7654L12.6667 16.827C13.3127 16.2852 14.0456 16 14.7917 16C15.5377 16 16.2706 16.2852 16.9167 16.827L24 23" stroke="#696888" stroke-width="2" stroke-linecap="round" stroke-linejoin="round"/>
<path d="M21 20.5018L22.3333 19.0036C22.9414 18.3461 23.6312 18 24.3333 18C25.0355 18 25.7253 18.3461 26.3333 19.0036L29 22" stroke="#696888" stroke-width="2" stroke-linecap="round" stroke-linejoin="round"/>
<circle cx="23" cy="12" r="0.5" stroke="#696888"/>
<path d="M3.61373 53V42.8182H7.24299C8.03513 42.8182 8.69138 42.9624 9.21174 43.2507C9.7321 43.5391 10.1215 43.9335 10.3801 44.4339C10.6386 44.9311 10.7678 45.4912 10.7678 46.1143C10.7678 46.7408 10.6369 47.3042 10.3751 47.8047C10.1166 48.3018 9.72547 48.6963 9.20179 48.9879C8.68143 49.2763 8.02684 49.4205 7.23801 49.4205H4.74228V48.1179H7.09881C7.59928 48.1179 8.0053 48.0317 8.31685 47.8594C8.6284 47.6837 8.8571 47.4451 9.00293 47.1435C9.14876 46.8419 9.22168 46.4988 9.22168 46.1143C9.22168 45.7299 9.14876 45.3885 9.00293 45.0902C8.8571 44.7919 8.62675 44.5582 8.31188 44.3892C8.00033 44.2202 7.58934 44.1357 7.07892 44.1357H5.14995V53H3.61373ZM15.5704 53.1541C14.8545 53.1541 14.2297 52.9901 13.6961 52.6619C13.1625 52.3338 12.7482 51.8748 12.4532 51.2848C12.1582 50.6948 12.0107 50.0054 12.0107 49.2166C12.0107 48.4245 12.1582 47.7318 12.4532 47.1385C12.7482 46.5452 13.1625 46.0845 13.6961 45.7564C14.2297 45.4283 14.8545 45.2642 15.5704 45.2642C16.2863 45.2642 16.9111 45.4283 17.4447 45.7564C17.9783 46.0845 18.3926 46.5452 18.6876 47.1385C18.9826 47.7318 19.1301 48.4245 19.1301 49.2166C19.1301 50.0054 18.9826 50.6948 18.6876 51.2848C18.3926 51.8748 17.9783 52.3338 17.4447 52.6619C16.9111 52.9901 16.2863 53.1541 15.5704 53.1541ZM15.5754 51.9062C16.0394 51.9062 16.4239 51.7836 16.7288 51.5384C17.0337 51.2931 17.2591 50.9666 17.4049 50.5589C17.5541 50.1513 17.6286 49.7022 17.6286 49.2116C17.6286 48.7244 17.5541 48.277 17.4049 47.8693C17.2591 47.4583 17.0337 47.1286 16.7288 46.88C16.4239 46.6314 16.0394 46.5071 15.5754 46.5071C15.108 46.5071 14.7203 46.6314 14.412 46.88C14.1071 47.1286 13.8801 47.4583 13.7309 47.8693C13.5851 48.277 13.5122 48.7244 13.5122 49.2116C13.5122 49.7022 13.5851 50.1513 13.7309 50.5589C13.8801 50.9666 14.1071 51.2931 14.412 51.5384C14.7203 51.7836 15.108 51.9062 15.5754 51.9062ZM26.5116 47.228L25.1643 47.4666C25.108 47.2943 25.0185 47.1302 24.8959 46.9744C24.7765 46.8187 24.6141 46.6911 24.4086 46.5916C24.2032 46.4922 23.9463 46.4425 23.6381 46.4425C23.2171 46.4425 22.8658 46.5369 22.5841 46.7259C22.3023 46.9115 22.1615 47.1518 22.1615 47.4467C22.1615 47.7019 22.2559 47.9074 22.4449 48.0632C22.6338 48.219 22.9387 48.3466 23.3596 48.446L24.5727 48.7244C25.2754 48.8868 25.799 49.1371 26.1437 49.4751C26.4884 49.8132 26.6608 50.2524 26.6608 50.7926C26.6608 51.25 26.5282 51.6577 26.2631 52.0156C26.0012 52.3703 25.635 52.6487 25.1643 52.8509C24.697 53.053 24.1551 53.1541 23.5386 53.1541C22.6835 53.1541 21.9858 52.9718 21.4456 52.6072C20.9053 52.2393 20.5739 51.7173 20.4513 51.0412L21.8881 50.8224C21.9775 51.197 22.1615 51.4804 22.4399 51.6726C22.7183 51.8615 23.0812 51.956 23.5287 51.956C24.0159 51.956 24.4053 51.8549 24.697 51.6527C24.9887 51.4472 25.1345 51.197 25.1345 50.902C25.1345 50.6634 25.045 50.4628 24.866 50.3004C24.6904 50.138 24.4202 50.0154 24.0557 49.9325L22.7631 49.6491C22.0505 49.4867 21.5235 49.2282 21.1821 48.8736C20.844 48.5189 20.675 48.0698 20.675 47.5263C20.675 47.0755 20.8009 46.6811 21.0528 46.343C21.3047 46.005 21.6527 45.7415 22.0969 45.5526C22.541 45.3603 23.0497 45.2642 23.6231 45.2642C24.4484 45.2642 25.098 45.4432 25.572 45.8011C26.046 46.1558 26.3592 46.6314 26.5116 47.228ZM31.8598 45.3636V46.5568H27.6887V45.3636H31.8598ZM28.8073 43.5341H30.2938V50.7578C30.2938 51.0462 30.3369 51.2633 30.423 51.4091C30.5092 51.5516 30.6202 51.6494 30.7561 51.7024C30.8953 51.7521 31.0461 51.777 31.2085 51.777C31.3279 51.777 31.4323 51.7687 31.5218 51.7521C31.6112 51.7356 31.6808 51.7223 31.7306 51.7124L31.999 52.9403C31.9128 52.9735 31.7902 53.0066 31.6311 53.0398C31.472 53.0762 31.2732 53.0961 31.0345 53.0994C30.6434 53.1061 30.2789 53.0365 29.9408 52.8906C29.6027 52.7448 29.3293 52.5194 29.1205 52.2145C28.9117 51.9096 28.8073 51.5268 28.8073 51.0661V43.5341Z" fill="#696888"/>
</svg>
