<svg width="24" height="24" viewBox="0 0 24 24" fill="none" xmlns="http://www.w3.org/2000/svg">
<circle cx="12" cy="12" r="12" fill="#657ADC"/>
<path d="M19 7.42061C18.4758 7.66555 17.9198 7.82624 17.3504 7.89734C17.9501 7.51887 18.3989 6.92332 18.6131 6.22168C18.0494 6.57464 17.4326 6.82318 16.7894 6.95653C16.5206 6.6542 16.1959 6.4133 15.8353 6.24876C15.4746 6.08422 15.0858 5.99955 14.6929 6C13.1068 6 11.8206 7.35618 11.8206 9.02953C11.8206 9.26675 11.8461 9.49821 11.8952 9.72008C9.50801 9.59371 7.39173 8.3875 5.97505 6.5544C5.71962 7.01676 5.5854 7.54247 5.58616 8.0776C5.58578 8.57639 5.70222 9.06755 5.92514 9.50745C6.14805 9.94734 6.47053 10.3223 6.86393 10.5991C6.40789 10.5839 5.96191 10.454 5.56307 10.2202C5.56271 10.2329 5.56271 10.2453 5.56271 10.2584C5.56271 11.7258 6.55267 12.9502 7.86643 13.2288C7.44341 13.3496 6.99987 13.3673 6.56939 13.2806C6.93483 14.484 7.99552 15.3601 9.25238 15.3847C8.23495 16.2268 6.97856 16.6836 5.68525 16.6816C5.45344 16.6816 5.2249 16.6674 5 16.6392C6.31328 17.5292 7.84173 18.0016 9.40274 18C14.6858 18 17.5748 13.384 17.5748 9.38104C17.5748 9.24987 17.5719 9.1189 17.5664 8.98869C18.129 8.56026 18.6145 8.02922 19 7.42061Z" fill="white"/>
</svg>
