<svg width="24" height="24" viewBox="0 0 24 24" fill="none" xmlns="http://www.w3.org/2000/svg">
<path d="M7.63215 20V9.20481H4.20236V20H7.63215ZM5.9177 7.73003C7.11373 7.73003 7.8582 6.90108 7.8582 5.86518C7.83591 4.80592 7.11377 3.99998 5.94039 3.99998C4.7672 3.99998 4 4.80594 4 5.86518C4 6.90113 4.74429 7.73003 5.89531 7.73003H5.91759H5.9177ZM9.53053 20H12.9603V13.9714C12.9603 13.6488 12.9826 13.3265 13.0732 13.0958C13.3211 12.4512 13.8855 11.7836 14.8329 11.7836C16.074 11.7836 16.5705 12.7735 16.5705 14.2247V19.9999H20.0001V13.8101C20.0001 10.4942 18.308 8.95137 16.0514 8.95137C14.2012 8.95137 13.3888 10.0333 12.9375 10.7702H12.9604V9.20459H9.53061C9.57562 10.2175 9.53061 19.9998 9.53061 19.9998L9.53053 20Z" fill="#067CB6"/>
</svg>
