<svg width="19" height="19" viewBox="0 0 19 19" fill="none" xmlns="http://www.w3.org/2000/svg">
<path d="M9.5 11.875C10.8117 11.875 11.875 10.8117 11.875 9.5C11.875 8.18832 10.8117 7.125 9.5 7.125C8.18832 7.125 7.125 8.18832 7.125 9.5C7.125 10.8117 8.18832 11.875 9.5 11.875Z" stroke="#0F0F17" stroke-width="1.5" stroke-linecap="round" stroke-linejoin="round"/>
<path d="M9.50033 15.8332C12.9981 15.8332 15.8337 12.9976 15.8337 9.49984C15.8337 6.00203 12.9981 3.1665 9.50033 3.1665C6.00252 3.1665 3.16699 6.00203 3.16699 9.49984C3.16699 12.9976 6.00252 15.8332 9.50033 15.8332Z" stroke="#0F0F17" stroke-width="1.5" stroke-linecap="round" stroke-linejoin="round"/>
<path d="M9.5 1.5835V3.16683" stroke="#0F0F17" stroke-width="1.5" stroke-linecap="round" stroke-linejoin="round"/>
<path d="M9.5 15.8335V17.4168" stroke="#0F0F17" stroke-width="1.5" stroke-linecap="round" stroke-linejoin="round"/>
<path d="M15.833 9.5H17.4163" stroke="#0F0F17" stroke-width="1.5" stroke-linecap="round" stroke-linejoin="round"/>
<path d="M1.58301 9.5H3.16634" stroke="#0F0F17" stroke-width="1.5" stroke-linecap="round" stroke-linejoin="round"/>
</svg>
