<svg width="24" height="24" viewBox="0 0 24 24" fill="none" xmlns="http://www.w3.org/2000/svg">
<path d="M20.1712 10.3679H19.5V10.3333H12V13.6667H16.7096C16.0225 15.6071 14.1762 17 12 17C9.23874 17 6.99999 14.7613 6.99999 12C6.99999 9.23875 9.23874 7 12 7C13.2746 7 14.4342 7.48083 15.3171 8.26625L17.6742 5.90917C16.1858 4.52208 14.195 3.66667 12 3.66667C7.39791 3.66667 3.66666 7.39792 3.66666 12C3.66666 16.6021 7.39791 20.3333 12 20.3333C16.6021 20.3333 20.3333 16.6021 20.3333 12C20.3333 11.4413 20.2758 10.8958 20.1712 10.3679Z" fill="#FFC107"/>
<path d="M4.6275 8.12125L7.36542 10.1292C8.10625 8.295 9.90042 7 12 7C13.2746 7 14.4342 7.48083 15.3171 8.26625L17.6742 5.90917C16.1858 4.52208 14.195 3.66667 12 3.66667C8.79917 3.66667 6.02334 5.47375 4.6275 8.12125Z" fill="#FF3D00"/>
<path d="M12 20.3333C14.1525 20.3333 16.1083 19.5096 17.5871 18.17L15.0079 15.9875C14.1431 16.6452 13.0864 17.0009 12 17C9.83249 17 7.99207 15.6179 7.29874 13.6892L4.58124 15.7829C5.9604 18.4817 8.76124 20.3333 12 20.3333Z" fill="#4CAF50"/>
<path d="M20.1713 10.3679H19.5V10.3333H12V13.6667H16.7096C16.3809 14.5902 15.7889 15.3972 15.0067 15.9879L15.0079 15.9871L17.5871 18.1696C17.4046 18.3354 20.3333 16.1667 20.3333 12C20.3333 11.4412 20.2758 10.8958 20.1713 10.3679Z" fill="#1976D2"/>
</svg>
